<svg xmlns="http://www.w3.org/2000/svg" width="1200" height="1194" viewBox="0 0 1200 1194">
<rect width="1200" height="1194" fill="#ffffff"/>
<rect x="0.0" y="0.0" width="1200.0" height="34.0" rx="0" fill="#ebebeb" stroke="none" stroke-width="1"/>
<line x1="0.0" y1="34.0" x2="1200.0" y2="34.0" stroke="#c9c9c9" stroke-width="1" stroke-linecap="round"/>
<circle cx="22.0" cy="17.0" r="5.0" fill="none" stroke="#b7b7b7" stroke-width="1.3"/>
<circle cx="40.0" cy="17.0" r="5.0" fill="none" stroke="#b7b7b7" stroke-width="1.3"/>
<circle cx="58.0" cy="17.0" r="5.0" fill="none" stroke="#b7b7b7" stroke-width="1.3"/>
<rect x="86.0" y="8.0" width="1090.0" height="18.0" rx="9" fill="#ffffff" stroke="#c9c9c9" stroke-width="1"/>
<text x="102.0" y="21.0" font-family="Arial, Helvetica, sans-serif" font-size="11.5" font-weight="normal" font-style="normal" fill="#8a8a8a" text-anchor="start">fraudshield.com/dicas.html</text>
<rect x="60.0" y="64.0" width="28.0" height="28.0" rx="7.840000000000001" fill="#2b2b2b" stroke="none" stroke-width="1"/>
<path d="M64.5 78.0 l5.7 5.7 l10.5 -11.4" fill="none" stroke="#ffffff" stroke-width="2.5" stroke-linecap="round" stroke-linejoin="round"/>
<text x="96.0" y="86.0" font-family="Arial, Helvetica, sans-serif" font-size="21" font-weight="bold" font-style="normal" fill="#2b2b2b" text-anchor="start">FraudShield</text>
<rect x="1022.0" y="64.0" width="118.0" height="32.0" rx="16.0" fill="#ffffff" stroke="#c9c9c9" stroke-width="1"/>
<path d="M 1047.6 73.5 A 6.5 6.5 0 1 0 1047.6 86.5 A 4.7 4.7 0 1 1 1047.6 73.5 Z" fill="#8a8a8a"/>
<text x="1062.0" y="84.0" font-family="Arial, Helvetica, sans-serif" font-size="12" font-weight="normal" font-style="normal" fill="#8a8a8a" text-anchor="start">Modo escuro</text>
<text x="449.9" y="85.0" font-family="Arial, Helvetica, sans-serif" font-size="14.5" font-weight="normal" font-style="normal" fill="#8a8a8a" text-anchor="start">Início</text>
<text x="541.3" y="85.0" font-family="Arial, Helvetica, sans-serif" font-size="14.5" font-weight="normal" font-style="normal" fill="#8a8a8a" text-anchor="start">Sobre</text>
<text x="623.2" y="85.0" font-family="Arial, Helvetica, sans-serif" font-size="14.5" font-weight="normal" font-style="normal" fill="#8a8a8a" text-anchor="start">Golpes</text>
<text x="714.6" y="85.0" font-family="Arial, Helvetica, sans-serif" font-size="14.5" font-weight="bold" font-style="normal" fill="#2b2b2b" text-anchor="start">Dicas</text>
<line x1="714.6" y1="93.0" x2="762.4" y2="93.0" stroke="#2b2b2b" stroke-width="2.4" stroke-linecap="round"/>
<text x="796.4" y="85.0" font-family="Arial, Helvetica, sans-serif" font-size="14.5" font-weight="normal" font-style="normal" fill="#8a8a8a" text-anchor="start">Contato</text>
<text x="897.4" y="85.0" font-family="Arial, Helvetica, sans-serif" font-size="14.5" font-weight="normal" font-style="normal" fill="#8a8a8a" text-anchor="start">Praticar</text>
<line x1="0.0" y1="126.0" x2="1200.0" y2="126.0" stroke="#c9c9c9" stroke-width="1" stroke-linecap="round"/>
<text x="60.0" y="166.0" font-family="Arial, Helvetica, sans-serif" font-size="13" font-weight="bold" font-style="normal" fill="#8a8a8a" text-anchor="start" letter-spacing="0.6">HÁBITOS QUE PROTEGEM</text>
<text x="60.0" y="227.2" font-family="Arial, Helvetica, sans-serif" font-size="38" font-weight="bold" font-style="normal" fill="#2b2b2b" text-anchor="start">Mais cuidado.</text>
<text x="60.0" y="272.0" font-family="Arial, Helvetica, sans-serif" font-size="38" font-weight="bold" font-style="normal" fill="#2b2b2b" text-anchor="start">Mais tranquilidade.</text>
<rect x="60.0" y="307.7" width="620.0" height="9.0" rx="2" fill="#d9d9d9" stroke="none" stroke-width="1"/>
<rect x="60.0" y="327.7" width="384.4" height="9.0" rx="2" fill="#d9d9d9" stroke="none" stroke-width="1"/>
<text x="60.0" y="398.8" font-family="Arial, Helvetica, sans-serif" font-size="27" font-weight="bold" font-style="normal" fill="#2b2b2b" text-anchor="start">Seis cuidados para o dia a dia.</text>
<rect x="60.0" y="441.1" width="344.0" height="171.4" rx="8" fill="#ffffff" stroke="#c9c9c9" stroke-width="1"/>
<text x="84.0" y="485.9" font-family="Arial, Helvetica, sans-serif" font-size="20.28" font-weight="bold" font-style="normal" fill="#8a8a8a" text-anchor="start">01</text>
<text x="84.0" y="519.2" font-family="Arial, Helvetica, sans-serif" font-size="19" font-weight="bold" font-style="normal" fill="#2b2b2b" text-anchor="start">Desconfie da urgência.</text>
<rect x="84.0" y="536.3" width="296.0" height="9.0" rx="2" fill="#d9d9d9" stroke="none" stroke-width="1"/>
<rect x="84.0" y="556.3" width="183.5" height="9.0" rx="2" fill="#d9d9d9" stroke="none" stroke-width="1"/>
<rect x="428.0" y="441.1" width="344.0" height="171.4" rx="8" fill="#ffffff" stroke="#c9c9c9" stroke-width="1"/>
<text x="452.0" y="485.9" font-family="Arial, Helvetica, sans-serif" font-size="20.28" font-weight="bold" font-style="normal" fill="#8a8a8a" text-anchor="start">02</text>
<text x="452.0" y="519.2" font-family="Arial, Helvetica, sans-serif" font-size="19" font-weight="bold" font-style="normal" fill="#2b2b2b" text-anchor="start">Ligue para quem você</text>
<text x="452.0" y="542.4" font-family="Arial, Helvetica, sans-serif" font-size="19" font-weight="bold" font-style="normal" fill="#2b2b2b" text-anchor="start">conhece.</text>
<rect x="452.0" y="559.4" width="296.0" height="9.0" rx="2" fill="#d9d9d9" stroke="none" stroke-width="1"/>
<rect x="452.0" y="579.4" width="183.5" height="9.0" rx="2" fill="#d9d9d9" stroke="none" stroke-width="1"/>
<rect x="796.0" y="441.1" width="344.0" height="171.4" rx="8" fill="#ffffff" stroke="#c9c9c9" stroke-width="1"/>
<text x="820.0" y="485.9" font-family="Arial, Helvetica, sans-serif" font-size="20.28" font-weight="bold" font-style="normal" fill="#8a8a8a" text-anchor="start">03</text>
<text x="820.0" y="519.2" font-family="Arial, Helvetica, sans-serif" font-size="19" font-weight="bold" font-style="normal" fill="#2b2b2b" text-anchor="start">Guarde senhas e</text>
<text x="820.0" y="542.4" font-family="Arial, Helvetica, sans-serif" font-size="19" font-weight="bold" font-style="normal" fill="#2b2b2b" text-anchor="start">códigos.</text>
<rect x="820.0" y="559.4" width="296.0" height="9.0" rx="2" fill="#d9d9d9" stroke="none" stroke-width="1"/>
<rect x="820.0" y="579.4" width="183.5" height="9.0" rx="2" fill="#d9d9d9" stroke="none" stroke-width="1"/>
<rect x="60.0" y="636.4" width="344.0" height="148.2" rx="8" fill="#ffffff" stroke="#c9c9c9" stroke-width="1"/>
<text x="84.0" y="681.2" font-family="Arial, Helvetica, sans-serif" font-size="20.28" font-weight="bold" font-style="normal" fill="#8a8a8a" text-anchor="start">04</text>
<text x="84.0" y="714.6" font-family="Arial, Helvetica, sans-serif" font-size="19" font-weight="bold" font-style="normal" fill="#2b2b2b" text-anchor="start">Olhe antes de clicar.</text>
<rect x="84.0" y="731.6" width="296.0" height="9.0" rx="2" fill="#d9d9d9" stroke="none" stroke-width="1"/>
<rect x="84.0" y="751.6" width="183.5" height="9.0" rx="2" fill="#d9d9d9" stroke="none" stroke-width="1"/>
<rect x="428.0" y="636.4" width="344.0" height="148.2" rx="8" fill="#ffffff" stroke="#c9c9c9" stroke-width="1"/>
<text x="452.0" y="681.2" font-family="Arial, Helvetica, sans-serif" font-size="20.28" font-weight="bold" font-style="normal" fill="#8a8a8a" text-anchor="start">05</text>
<text x="452.0" y="714.6" font-family="Arial, Helvetica, sans-serif" font-size="19" font-weight="bold" font-style="normal" fill="#2b2b2b" text-anchor="start">Confira antes do Pix.</text>
<rect x="452.0" y="731.6" width="296.0" height="9.0" rx="2" fill="#d9d9d9" stroke="none" stroke-width="1"/>
<rect x="452.0" y="751.6" width="183.5" height="9.0" rx="2" fill="#d9d9d9" stroke="none" stroke-width="1"/>
<rect x="796.0" y="636.4" width="344.0" height="148.2" rx="8" fill="#ffffff" stroke="#c9c9c9" stroke-width="1"/>
<text x="820.0" y="681.2" font-family="Arial, Helvetica, sans-serif" font-size="20.28" font-weight="bold" font-style="normal" fill="#8a8a8a" text-anchor="start">06</text>
<text x="820.0" y="714.6" font-family="Arial, Helvetica, sans-serif" font-size="19" font-weight="bold" font-style="normal" fill="#2b2b2b" text-anchor="start">Converse com alguém.</text>
<rect x="820.0" y="731.6" width="296.0" height="9.0" rx="2" fill="#d9d9d9" stroke="none" stroke-width="1"/>
<rect x="820.0" y="751.6" width="183.5" height="9.0" rx="2" fill="#d9d9d9" stroke="none" stroke-width="1"/>
<rect x="60.0" y="828.6" width="1080.0" height="215.2" rx="8" fill="#404040" stroke="none" stroke-width="1"/>
<text x="100.0" y="889.4" font-family="Arial, Helvetica, sans-serif" font-size="26" font-weight="bold" font-style="normal" fill="#ffffff" text-anchor="start">Pare. Confirme. Depois decida.</text>
<rect x="100.0" y="913.8" width="550.0" height="9.0" rx="2" fill="#6a6a6a" stroke="none" stroke-width="1"/>
<rect x="100.0" y="953.8" width="214.3" height="44.0" rx="6" fill="#ffffff" stroke="none" stroke-width="1"/>
<text x="207.2" y="980.8" font-family="Arial, Helvetica, sans-serif" font-size="14" font-weight="bold" font-style="normal" fill="#2b2b2b" text-anchor="middle">Colocar em prática</text>
<line x1="0.0" y1="1083.8" x2="1200.0" y2="1083.8" stroke="#c9c9c9" stroke-width="1" stroke-linecap="round"/>
<rect x="60.0" y="1102.8" width="26.0" height="26.0" rx="7.280000000000001" fill="#2b2b2b" stroke="none" stroke-width="1"/>
<path d="M64.2 1115.8 l5.3 5.3 l9.7 -10.6" fill="none" stroke="#ffffff" stroke-width="2.3" stroke-linecap="round" stroke-linejoin="round"/>
<text x="94.0" y="1121.8" font-family="Arial, Helvetica, sans-serif" font-size="17" font-weight="bold" font-style="normal" fill="#2b2b2b" text-anchor="start">FraudShield</text>
<text x="60.0" y="1151.8" font-family="Arial, Helvetica, sans-serif" font-size="12.5" font-weight="normal" font-style="normal" fill="#8a8a8a" text-anchor="start">Mais informação. Menos risco. Um projeto educativo.</text>
<text x="897.5" y="1142.8" font-family="Arial, Helvetica, sans-serif" font-size="13" font-weight="bold" font-style="normal" fill="#2b2b2b" text-anchor="start">O projeto</text>
<line x1="897.5" y1="1148.8" x2="974.7" y2="1148.8" stroke="#c9c9c9" stroke-width="1.2" stroke-linecap="round"/>
<text x="1002.7" y="1142.8" font-family="Arial, Helvetica, sans-serif" font-size="13" font-weight="bold" font-style="normal" fill="#2b2b2b" text-anchor="start">Fale com a gente</text>
<line x1="1002.7" y1="1148.8" x2="1140.0" y2="1148.8" stroke="#c9c9c9" stroke-width="1.2" stroke-linecap="round"/>
<rect x="0.75" y="0.75" width="1198.5" height="1192.3" fill="none" stroke="#d5d5d5" stroke-width="1.5"/>
</svg>